<svg xmlns="http://www.w3.org/2000/svg" xmlns:xlink="http://www.w3.org/1999/xlink" version="1.1" x="0px" y="0px" viewBox="0 0 32 40" enable-background="new 0 0 32 32" xml:space="preserve"><path d="M31.289,12.724l-5.313-3.716V3.221c0-0.48-0.391-0.87-0.871-0.87h-3.078c-0.48,0-0.869,0.39-0.869,0.87v2.418l-4.659-3.258  c-0.3-0.21-0.697-0.21-0.997,0L0.711,12.724c-0.393,0.275-0.489,0.817-0.213,1.211c0.275,0.394,0.816,0.49,1.211,0.215l2.6-1.818  v16.576c0,0.48,0.39,0.87,0.869,0.87h5.877c0.48,0,0.869-0.39,0.869-0.87V18.126h8.152v10.781c0,0.48,0.39,0.87,0.87,0.87h5.876  c0.48,0,0.87-0.39,0.87-0.87V12.331l2.599,1.818c0.152,0.105,0.326,0.156,0.498,0.156c0.275,0,0.545-0.129,0.715-0.371  C31.779,13.541,31.684,12.999,31.289,12.724z M24.236,4.091v3.7l-1.338-0.936V4.091H24.236z M25.952,28.038h-4.136V17.256  c0-0.48-0.39-0.87-0.87-0.87h-9.892c-0.48,0-0.87,0.39-0.87,0.87v10.782H6.049V11.114L16,4.155l9.952,6.959V28.038z"/><text x="0" y="47" fill="#000000" font-size="5px" font-weight="bold" font-family="'Helvetica Neue', Helvetica, Arial-Unicode, Arial, Sans-serif">Created by An Chi</text><text x="0" y="52" fill="#000000" font-size="5px" font-weight="bold" font-family="'Helvetica Neue', Helvetica, Arial-Unicode, Arial, Sans-serif">from the Noun Project</text></svg>