<svg xmlns="http://www.w3.org/2000/svg" xmlns:xlink="http://www.w3.org/1999/xlink" version="1.1" x="0px" y="0px" viewBox="0 0 32 40" enable-background="new 0 0 32 32" xml:space="preserve"><path d="M29.799,12.188c0.55,0,0.632-0.26,0.183-0.576l-13.164-9.28c-0.449-0.317-1.186-0.317-1.635,0l-13.165,9.28  c-0.449,0.316-0.367,0.576,0.183,0.576H29.799z M16.001,5.726c1.096,0,1.984,0.889,1.984,1.985s-0.889,1.984-1.984,1.984  c-1.098,0-1.986-0.888-1.986-1.984S14.904,5.726,16.001,5.726z"/><rect x="4.416" y="13.688" width="3.881" height="12.404"/><rect x="14.059" y="13.688" width="3.881" height="12.404"/><rect x="23.704" y="13.688" width="3.881" height="12.404"/><path d="M29.541,27.592H2.459c-0.306,0-0.553,0.248-0.553,0.553v1.209c0,0.306,0.247,0.553,0.553,0.553h27.081  c0.306,0,0.553-0.247,0.553-0.553v-1.209C30.093,27.84,29.846,27.592,29.541,27.592z"/><text x="0" y="47" fill="#000000" font-size="5px" font-weight="bold" font-family="'Helvetica Neue', Helvetica, Arial-Unicode, Arial, Sans-serif">Created by Lola Van</text><text x="0" y="52" fill="#000000" font-size="5px" font-weight="bold" font-family="'Helvetica Neue', Helvetica, Arial-Unicode, Arial, Sans-serif">from the Noun Project</text></svg>