<svg xmlns="http://www.w3.org/2000/svg" xmlns:xlink="http://www.w3.org/1999/xlink" version="1.1" x="0px" y="0px" viewBox="0 0 100 125" enable-background="new 0 0 100 100" xml:space="preserve"><path d="M74.3,23.4H25.7c-3.5,0-6.3,2.8-6.3,6.4v29.4c0,3.5,2.8,6.3,6.3,6.3h1.4v10.2c0,0.8,1,1.2,1.6,0.7l10.9-10.9h34.7  c3.5,0,6.3-2.8,6.3-6.3V29.7C80.6,26.2,77.8,23.4,74.3,23.4z M52.9,55.1c0,0.4-0.4,0.8-0.8,0.8H32.6c-0.4,0-0.8-0.4-0.8-0.8v-3.2  c0-0.4,0.4-0.8,0.8-0.8h19.5c0.4,0,0.8,0.4,0.8,0.8V55.1z M68.2,46c0,0.4-0.4,0.8-0.8,0.8H32.6c-0.4,0-0.8-0.4-0.8-0.8v-3.2  c0-0.4,0.4-0.8,0.8-0.8h34.9c0.4,0,0.8,0.4,0.8,0.8V46z M68.2,37c0,0.4-0.4,0.8-0.8,0.8H32.6c-0.4,0-0.8-0.4-0.8-0.8v-3.2  c0-0.4,0.4-0.8,0.8-0.8h34.9c0.4,0,0.8,0.4,0.8,0.8V37z"/><text x="0" y="115" fill="#000000" font-size="5px" font-weight="bold" font-family="'Helvetica Neue', Helvetica, Arial-Unicode, Arial, Sans-serif">Created by Gregor Cresnar</text><text x="0" y="120" fill="#000000" font-size="5px" font-weight="bold" font-family="'Helvetica Neue', Helvetica, Arial-Unicode, Arial, Sans-serif">from the Noun Project</text></svg>